<?xml version="1.0" encoding="UTF-8" standalone="no"?>
<!DOCTYPE svg PUBLIC "-//W3C//DTD SVG 1.1//EN" "http://www.w3.org/Graphics/SVG/1.1/DTD/svg11.dtd">
<svg width="100%" height="100%" viewBox="0 0 102 103" version="1.1" xmlns="http://www.w3.org/2000/svg" xmlns:xlink="http://www.w3.org/1999/xlink" xml:space="preserve" xmlns:serif="http://www.serif.com/" style="fill-rule:evenodd;clip-rule:evenodd;stroke-linecap:round;stroke-linejoin:round;stroke-miterlimit:1.5;">
    <g transform="matrix(1,0,0,1,-738,-117)">
        <g id="ac">
            <g id="base-square" serif:id="base square" transform="matrix(8.05848,0,0,8.05848,-1841.47,-1660.44)">
                <path d="M332.628,221.406C332.628,221.242 332.562,221.084 332.446,220.968C332.33,220.851 332.172,220.786 332.007,220.786L320.839,220.786C320.674,220.786 320.517,220.851 320.4,220.968C320.284,221.084 320.219,221.242 320.219,221.406L320.219,232.575C320.219,232.739 320.284,232.897 320.4,233.013C320.517,233.13 320.674,233.195 320.839,233.195L332.007,233.195C332.172,233.195 332.33,233.13 332.446,233.013C332.562,232.897 332.628,232.739 332.628,232.575L332.628,221.406Z" style="fill:none;stroke:black;stroke-opacity:0.87;stroke-width:0.25px;"/>
            </g>
            <g transform="matrix(0.988997,0,0,1.15783,9.17615,-26.6446)">
                <g transform="matrix(-0.82663,0,0,1.01682,1246.87,9.39906)">
                    <path d="M594,127.849C594,127.38 593.452,127 592.777,127C583.583,127 525.417,127 516.223,127C515.548,127 515,127.38 515,127.849C515,130.018 515,135.739 515,137.908C515,138.377 515.548,138.757 516.223,138.757C525.417,138.757 583.583,138.757 592.777,138.757C593.452,138.757 594,138.377 594,137.908C594,135.739 594,130.018 594,127.849Z"/>
                </g>
                <g transform="matrix(-0.974684,0,0,1.01682,1328.96,33.6506)">
                    <path d="M594,127.849C594,127.624 593.891,127.408 593.696,127.249C593.502,127.089 593.238,127 592.963,127C584.34,127 524.66,127 516.037,127C515.762,127 515.498,127.089 515.304,127.249C515.109,127.408 515,127.624 515,127.849C515,130.018 515,135.739 515,137.908C515,138.133 515.109,138.349 515.304,138.508C515.498,138.668 515.762,138.757 516.037,138.757C524.66,138.757 584.34,138.757 592.963,138.757C593.238,138.757 593.502,138.668 593.696,138.508C593.891,138.349 594,138.133 594,137.908C594,135.739 594,130.018 594,127.849Z"/>
                </g>
                <g transform="matrix(-0.82663,0,0,1.01682,1246.87,57.9021)">
                    <path d="M594,127.849C594,127.38 593.452,127 592.777,127C583.583,127 525.417,127 516.223,127C515.548,127 515,127.38 515,127.849C515,130.018 515,135.739 515,137.908C515,138.377 515.548,138.757 516.223,138.757C525.417,138.757 583.583,138.757 592.777,138.757C593.452,138.757 594,138.377 594,137.908C594,135.739 594,130.018 594,127.849Z"/>
                </g>
            </g>
        </g>
    </g>
</svg>
