<?xml version="1.0" encoding="UTF-8" standalone="no"?>
<!DOCTYPE svg PUBLIC "-//W3C//DTD SVG 1.1//EN" "http://www.w3.org/Graphics/SVG/1.1/DTD/svg11.dtd">
<svg width="100%" height="100%" viewBox="0 0 102 103" version="1.1" xmlns="http://www.w3.org/2000/svg" xmlns:xlink="http://www.w3.org/1999/xlink" xml:space="preserve" xmlns:serif="http://www.serif.com/" style="fill-rule:evenodd;clip-rule:evenodd;stroke-linecap:round;stroke-linejoin:round;stroke-miterlimit:1.5;">
    <g transform="matrix(1,0,0,1,-856,-117)">
        <g id="aj">
            <g id="base-square" serif:id="base square" transform="matrix(8.05848,0,0,8.05848,-1723.47,-1660.44)">
                <path d="M332.628,221.406C332.628,221.242 332.562,221.084 332.446,220.968C332.33,220.851 332.172,220.786 332.007,220.786L320.839,220.786C320.674,220.786 320.517,220.851 320.4,220.968C320.284,221.084 320.219,221.242 320.219,221.406L320.219,232.575C320.219,232.739 320.284,232.897 320.4,233.013C320.517,233.13 320.674,233.195 320.839,233.195L332.007,233.195C332.172,233.195 332.33,233.13 332.446,233.013C332.562,232.897 332.628,232.739 332.628,232.575L332.628,221.406Z" style="fill:none;stroke:black;stroke-opacity:0.87;stroke-width:0.25px;"/>
            </g>
            <g transform="matrix(1.02796,0,0,1.15783,-25.8716,-26.6446)">
                <g transform="matrix(-0.974684,0,0,1.01682,1447.96,9.39906)">
                    <path d="M594,127.849C594,127.38 593.553,127 593.002,127C584.51,127 524.49,127 515.998,127C515.447,127 515,127.38 515,127.849C515,130.018 515,135.739 515,137.908C515,138.377 515.447,138.757 515.998,138.757C524.49,138.757 584.51,138.757 593.002,138.757C593.553,138.757 594,138.377 594,137.908C594,135.739 594,130.018 594,127.849Z"/>
                </g>
                <g transform="matrix(-0.974684,0,0,1.01682,1447.96,33.6506)">
                    <path d="M594,127.849C594,127.38 593.553,127 593.002,127C584.51,127 524.49,127 515.998,127C515.447,127 515,127.38 515,127.849C515,130.018 515,135.739 515,137.908C515,138.377 515.447,138.757 515.998,138.757C524.49,138.757 584.51,138.757 593.002,138.757C593.553,138.757 594,138.377 594,137.908C594,135.739 594,130.018 594,127.849Z"/>
                </g>
                <g transform="matrix(-0.974684,0,0,1.01682,1447.96,57.9021)">
                    <path d="M594,127.849C594,127.38 593.553,127 593.002,127C584.51,127 524.49,127 515.998,127C515.447,127 515,127.38 515,127.849C515,130.018 515,135.739 515,137.908C515,138.377 515.447,138.757 515.998,138.757C524.49,138.757 584.51,138.757 593.002,138.757C593.553,138.757 594,138.377 594,137.908C594,135.739 594,130.018 594,127.849Z"/>
                </g>
            </g>
        </g>
    </g>
</svg>
