<?xml version="1.0" encoding="UTF-8" standalone="no"?>
<!DOCTYPE svg PUBLIC "-//W3C//DTD SVG 1.1//EN" "http://www.w3.org/Graphics/SVG/1.1/DTD/svg11.dtd">
<svg width="100%" height="100%" viewBox="0 0 102 103" version="1.1" xmlns="http://www.w3.org/2000/svg" xmlns:xlink="http://www.w3.org/1999/xlink" xml:space="preserve" xmlns:serif="http://www.serif.com/" style="fill-rule:evenodd;clip-rule:evenodd;stroke-linecap:round;stroke-linejoin:round;stroke-miterlimit:1.5;">
    <g transform="matrix(1,0,0,1,-506,-117)">
        <g id="al">
            <g id="base-square" serif:id="base square" transform="matrix(8.05848,0,0,8.05848,-2073.47,-1660.44)">
                <path d="M332.628,221.406C332.628,221.242 332.562,221.084 332.446,220.968C332.33,220.851 332.172,220.786 332.007,220.786L320.839,220.786C320.674,220.786 320.517,220.851 320.4,220.968C320.284,221.084 320.219,221.242 320.219,221.406L320.219,232.575C320.219,232.739 320.284,232.897 320.4,233.013C320.517,233.13 320.674,233.195 320.839,233.195L332.007,233.195C332.172,233.195 332.33,233.13 332.446,233.013C332.562,232.897 332.628,232.739 332.628,232.575L332.628,221.406Z" style="fill:none;stroke:black;stroke-opacity:0.87;stroke-width:0.25px;"/>
            </g>
            <g transform="matrix(1.01497,0,0,1.15783,-4.78626,-26.0252)">
                <g transform="matrix(0.82663,0,0,1.01682,89.2854,8.86404)">
                    <path d="M594,127.849C594,127.38 593.466,127 592.808,127C583.705,127 525.295,127 516.192,127C515.534,127 515,127.38 515,127.849C515,130.018 515,135.739 515,137.908C515,138.377 515.534,138.757 516.192,138.757C525.295,138.757 583.705,138.757 592.808,138.757C593.466,138.757 594,138.377 594,137.908C594,135.739 594,130.018 594,127.849Z"/>
                </g>
                <g transform="matrix(0.974684,0,0,1.01682,13.038,33.1156)">
                    <path d="M594,127.849C594,127.624 593.893,127.408 593.704,127.249C593.514,127.089 593.257,127 592.989,127C584.454,127 524.546,127 516.011,127C515.743,127 515.486,127.089 515.296,127.249C515.107,127.408 515,127.624 515,127.849C515,130.018 515,135.739 515,137.908C515,138.133 515.107,138.349 515.296,138.508C515.486,138.668 515.743,138.757 516.011,138.757C524.546,138.757 584.454,138.757 592.989,138.757C593.257,138.757 593.514,138.668 593.704,138.508C593.893,138.349 594,138.133 594,137.908C594,135.739 594,130.018 594,127.849Z"/>
                </g>
                <g transform="matrix(0.82663,0,0,1.01682,89.2854,57.3671)">
                    <path d="M594,127.849C594,127.38 593.466,127 592.808,127C583.705,127 525.295,127 516.192,127C515.534,127 515,127.38 515,127.849C515,130.018 515,135.739 515,137.908C515,138.377 515.534,138.757 516.192,138.757C525.295,138.757 583.705,138.757 592.808,138.757C593.466,138.757 594,138.377 594,137.908C594,135.739 594,130.018 594,127.849Z"/>
                </g>
            </g>
        </g>
    </g>
</svg>
