<?xml version="1.0" encoding="UTF-8" standalone="no"?>
<!DOCTYPE svg PUBLIC "-//W3C//DTD SVG 1.1//EN" "http://www.w3.org/Graphics/SVG/1.1/DTD/svg11.dtd">
<svg width="100%" height="100%" viewBox="0 0 103 103" version="1.1" xmlns="http://www.w3.org/2000/svg" xmlns:xlink="http://www.w3.org/1999/xlink" xml:space="preserve" xmlns:serif="http://www.serif.com/" style="fill-rule:evenodd;clip-rule:evenodd;stroke-linecap:round;stroke-linejoin:round;stroke-miterlimit:1.5;">
    <g transform="matrix(1,0,0,1,-240,-5)">
        <g id="bold">
            <g id="base-square" serif:id="base square" transform="matrix(8.05848,0,0,8.05848,-2339.04,-1772.44)">
                <path d="M332.628,221.406C332.628,221.242 332.562,221.084 332.446,220.968C332.33,220.851 332.172,220.786 332.007,220.786L320.839,220.786C320.674,220.786 320.517,220.851 320.4,220.968C320.284,221.084 320.219,221.242 320.219,221.406L320.219,232.575C320.219,232.739 320.284,232.897 320.4,233.013C320.517,233.13 320.674,233.195 320.839,233.195L332.007,233.195C332.172,233.195 332.33,233.13 332.446,233.013C332.562,232.897 332.628,232.739 332.628,232.575L332.628,221.406Z" style="fill:none;stroke:black;stroke-opacity:0.87;stroke-width:0.25px;"/>
            </g>
            <g transform="matrix(110.907,0,0,110.907,257.167,91.7925)">
                <path d="M0.526,-0.189C0.526,-0.167 0.523,-0.147 0.517,-0.128C0.511,-0.11 0.502,-0.094 0.491,-0.08C0.481,-0.066 0.468,-0.054 0.452,-0.044C0.437,-0.034 0.421,-0.026 0.402,-0.019C0.384,-0.013 0.365,-0.008 0.344,-0.005C0.323,-0.002 0.3,0 0.275,0L0.107,0C0.096,0 0.087,-0.003 0.08,-0.01C0.073,-0.016 0.069,-0.026 0.069,-0.041L0.069,-0.591C0.069,-0.606 0.073,-0.616 0.08,-0.622C0.087,-0.629 0.096,-0.632 0.107,-0.632L0.266,-0.632C0.304,-0.632 0.337,-0.629 0.364,-0.622C0.391,-0.616 0.413,-0.606 0.432,-0.593C0.45,-0.579 0.464,-0.563 0.474,-0.542C0.484,-0.522 0.489,-0.499 0.489,-0.471C0.489,-0.456 0.487,-0.441 0.483,-0.428C0.479,-0.414 0.473,-0.402 0.466,-0.391C0.458,-0.38 0.449,-0.37 0.438,-0.362C0.427,-0.353 0.415,-0.347 0.401,-0.341C0.419,-0.338 0.435,-0.332 0.45,-0.324C0.466,-0.316 0.479,-0.306 0.49,-0.293C0.501,-0.28 0.51,-0.265 0.517,-0.248C0.523,-0.23 0.526,-0.211 0.526,-0.189ZM0.36,-0.456C0.36,-0.468 0.358,-0.48 0.354,-0.49C0.351,-0.5 0.345,-0.508 0.337,-0.515C0.329,-0.522 0.319,-0.527 0.307,-0.53C0.295,-0.534 0.28,-0.536 0.26,-0.536L0.195,-0.536L0.195,-0.372L0.267,-0.372C0.285,-0.372 0.3,-0.374 0.311,-0.378C0.322,-0.383 0.331,-0.389 0.339,-0.396C0.346,-0.404 0.351,-0.413 0.355,-0.423C0.359,-0.433 0.36,-0.444 0.36,-0.456ZM0.393,-0.185C0.393,-0.2 0.391,-0.213 0.386,-0.224C0.381,-0.236 0.374,-0.246 0.364,-0.253C0.355,-0.261 0.343,-0.267 0.328,-0.271C0.313,-0.276 0.294,-0.278 0.271,-0.278L0.195,-0.278L0.195,-0.098L0.288,-0.098C0.306,-0.098 0.321,-0.1 0.333,-0.104C0.345,-0.108 0.356,-0.113 0.365,-0.12C0.373,-0.128 0.38,-0.137 0.385,-0.148C0.391,-0.159 0.393,-0.171 0.393,-0.185Z" style="fill-rule:nonzero;"/>
            </g>
        </g>
    </g>
</svg>
