<?xml version="1.0" encoding="UTF-8" standalone="no"?>
<!DOCTYPE svg PUBLIC "-//W3C//DTD SVG 1.1//EN" "http://www.w3.org/Graphics/SVG/1.1/DTD/svg11.dtd">
<svg width="100%" height="100%" viewBox="0 0 103 103" version="1.1" xmlns="http://www.w3.org/2000/svg" xmlns:xlink="http://www.w3.org/1999/xlink" xml:space="preserve" xmlns:serif="http://www.serif.com/" style="fill-rule:evenodd;clip-rule:evenodd;stroke-linecap:round;stroke-linejoin:round;stroke-miterlimit:1.5;">
    <g transform="matrix(1,0,0,1,-124,-5)">
        <g id="color">
            <g id="base-square" serif:id="base square" transform="matrix(8.05848,0,0,8.05848,-2455.04,-1772.44)">
                <path d="M332.628,221.406C332.628,221.242 332.562,221.084 332.446,220.968C332.33,220.851 332.172,220.786 332.007,220.786L320.839,220.786C320.674,220.786 320.517,220.851 320.4,220.968C320.284,221.084 320.219,221.242 320.219,221.406L320.219,232.575C320.219,232.739 320.284,232.897 320.4,233.013C320.517,233.13 320.674,233.195 320.839,233.195L332.007,233.195C332.172,233.195 332.33,233.13 332.446,233.013C332.562,232.897 332.628,232.739 332.628,232.575L332.628,221.406Z" style="fill:none;stroke:black;stroke-opacity:0.87;stroke-width:0.25px;"/>
            </g>
            <g id="color1" serif:id="color" transform="matrix(0.876698,0,0,0.876698,20.4129,8.50621)">
                <path d="M205.913,86C205.913,85.47 205.703,84.961 205.328,84.586C204.953,84.211 204.444,84 203.913,84C194.969,84 158.687,84 149.743,84C149.212,84 148.704,84.211 148.328,84.586C147.953,84.961 147.743,85.47 147.743,86C147.743,87.986 147.743,91.014 147.743,93C147.743,93.53 147.953,94.039 148.328,94.414C148.704,94.789 149.212,95 149.743,95C158.687,95 194.969,95 203.913,95C204.444,95 204.953,94.789 205.328,94.414C205.703,94.039 205.913,93.53 205.913,93C205.913,91.014 205.913,87.986 205.913,86ZM164.329,64.142L160.325,76.495C160.195,76.951 160.024,77.333 159.813,77.643C159.601,77.952 159.259,78.196 158.787,78.375C158.315,78.554 157.648,78.676 156.785,78.741C155.923,78.806 154.791,78.839 153.392,78.839C151.894,78.839 150.722,78.79 149.876,78.693C149.03,78.595 148.444,78.359 148.118,77.985C147.793,77.61 147.679,77.081 147.776,76.398C147.874,75.714 148.118,74.803 148.509,73.663L167.991,17.609C168.187,17.055 168.415,16.608 168.675,16.266C168.935,15.924 169.35,15.664 169.92,15.485C170.49,15.306 171.279,15.192 172.288,15.143C173.297,15.094 174.632,15.07 176.292,15.07C178.213,15.07 179.743,15.094 180.882,15.143C182.021,15.192 182.908,15.306 183.543,15.485C184.178,15.664 184.634,15.932 184.91,16.29C185.187,16.648 185.423,17.137 185.618,17.755L205.15,73.761C205.54,74.933 205.784,75.861 205.882,76.544C205.98,77.228 205.849,77.74 205.491,78.082C205.133,78.424 204.498,78.636 203.587,78.717C202.676,78.798 201.422,78.839 199.827,78.839C198.167,78.839 196.873,78.815 195.945,78.766C195.018,78.717 194.31,78.619 193.821,78.473C193.333,78.326 192.991,78.123 192.796,77.862C192.601,77.602 192.438,77.26 192.308,76.837L188.06,64.142L164.329,64.142ZM176.146,27.423L176.097,27.423L167.161,54.278L185.081,54.278L176.146,27.423Z" style="fill-rule:nonzero;"/>
            </g>
        </g>
    </g>
</svg>
