<?xml version="1.0" encoding="UTF-8" standalone="no"?>
<!DOCTYPE svg PUBLIC "-//W3C//DTD SVG 1.1//EN" "http://www.w3.org/Graphics/SVG/1.1/DTD/svg11.dtd">
<svg width="100%" height="100%" viewBox="0 0 103 103" version="1.1" xmlns="http://www.w3.org/2000/svg" xmlns:xlink="http://www.w3.org/1999/xlink" xml:space="preserve" xmlns:serif="http://www.serif.com/" style="fill-rule:evenodd;clip-rule:evenodd;stroke-linecap:round;stroke-linejoin:round;stroke-miterlimit:1.5;">
    <g transform="matrix(1,0,0,1,-592,-5)">
        <g id="highlight">
            <g id="base-square" serif:id="base square" transform="matrix(8.05848,0,0,8.05848,-1987.04,-1772.44)">
                <path d="M332.628,221.406C332.628,221.242 332.562,221.084 332.446,220.968C332.33,220.851 332.172,220.786 332.007,220.786L320.839,220.786C320.674,220.786 320.517,220.851 320.4,220.968C320.284,221.084 320.219,221.242 320.219,221.406L320.219,232.575C320.219,232.739 320.284,232.897 320.4,233.013C320.517,233.13 320.674,233.195 320.839,233.195L332.007,233.195C332.172,233.195 332.33,233.13 332.446,233.013C332.562,232.897 332.628,232.739 332.628,232.575L332.628,221.406Z" style="fill:none;stroke:black;stroke-opacity:0.87;stroke-width:0.25px;"/>
            </g>
            <g transform="matrix(0.952257,0,0,0.952257,32.3753,2.43128)">
                <g transform="matrix(0.75641,0,0,0.682576,155.128,27.3411)">
                    <path d="M682,88.077C682,86.378 680.757,85 679.223,85C667.103,85 618.897,85 606.777,85C605.243,85 604,86.378 604,88.077C604,89.794 604,91.926 604,93.643C604,95.343 605.243,96.72 606.777,96.72C618.897,96.72 667.103,96.72 679.223,96.72C680.757,96.72 682,95.343 682,93.643C682,91.926 682,89.794 682,88.077Z"/>
                </g>
                <g transform="matrix(0.906308,0.422618,-0.422618,0.906308,87.4017,-263.364)">
                    <path d="M648,71.5L648,77L639,81L639,71.689C639,71.623 638.991,71.56 638.974,71.5L648,71.5ZM648.88,69.5C648.88,69.514 648.879,69.529 648.879,69.543C648.879,69.863 648.879,70.261 648.879,70.561C648.879,70.677 648.833,70.789 648.751,70.871C648.669,70.954 648.557,71 648.44,71C648.44,71 648.439,71 648.439,71L638.31,71C637.929,71 637.621,70.692 637.621,70.311C637.621,70.048 637.621,69.752 637.621,69.509C637.621,69.506 637.621,69.503 637.621,69.5L648.88,69.5ZM638.005,69C637.675,69 637.365,68.845 637.166,68.581C636.384,67.542 634.369,64.863 633.711,63.989C633.574,63.807 633.5,63.586 633.5,63.358C633.5,59.501 633.5,25.055 633.5,19.75C633.5,19.336 633.836,19 634.25,19C634.449,19 634.64,18.921 634.78,18.78C634.921,18.64 635,18.449 635,18.25C635,18.168 635,18.084 635,18C635,17.448 635.448,17 636,17C639.014,17 647.986,17 651,17C651.552,17 652,17.448 652,18C652,18.084 652,18.168 652,18.25C652,18.449 652.079,18.64 652.22,18.78C652.36,18.921 652.551,19 652.75,19C653.164,19 653.5,19.336 653.5,19.75C653.5,25.028 653.5,59.289 653.5,63.293C653.5,63.54 653.413,63.778 653.255,63.967C652.498,64.871 650.198,67.617 649.355,68.624C649.155,68.862 648.86,69 648.549,69C646.671,69 639.941,69 638.005,69Z"/>
                </g>
            </g>
        </g>
    </g>
</svg>
