<?xml version="1.0" encoding="UTF-8" standalone="no"?>
<!DOCTYPE svg PUBLIC "-//W3C//DTD SVG 1.1//EN" "http://www.w3.org/Graphics/SVG/1.1/DTD/svg11.dtd">
<svg width="100%" height="100%" viewBox="0 0 103 103" version="1.1" xmlns="http://www.w3.org/2000/svg" xmlns:xlink="http://www.w3.org/1999/xlink" xml:space="preserve" xmlns:serif="http://www.serif.com/" style="fill-rule:evenodd;clip-rule:evenodd;stroke-linecap:round;stroke-linejoin:round;stroke-miterlimit:1.5;">
    <g transform="matrix(1,0,0,1,-352,-5)">
        <g id="italic">
            <g id="base-square" serif:id="base square" transform="matrix(8.05848,0,0,8.05848,-2227.04,-1772.44)">
                <path d="M332.628,221.406C332.628,221.242 332.562,221.084 332.446,220.968C332.33,220.851 332.172,220.786 332.007,220.786L320.839,220.786C320.674,220.786 320.517,220.851 320.4,220.968C320.284,221.084 320.219,221.242 320.219,221.406L320.219,232.575C320.219,232.739 320.284,232.897 320.4,233.013C320.517,233.13 320.674,233.195 320.839,233.195L332.007,233.195C332.172,233.195 332.33,233.13 332.446,233.013C332.562,232.897 332.628,232.739 332.628,232.575L332.628,221.406Z" style="fill:none;stroke:black;stroke-opacity:0.87;stroke-width:0.25px;"/>
            </g>
            <g transform="matrix(109.888,0,0,109.888,387.663,91.4706)">
                <path d="M0.125,-0.012C0.125,-0.01 0.124,-0.008 0.122,-0.006C0.12,-0.004 0.117,-0.002 0.114,-0.001C0.11,0 0.106,0.001 0.1,0.002C0.095,0.003 0.088,0.003 0.08,0.003C0.072,0.003 0.065,0.003 0.06,0.002C0.054,0.001 0.05,0 0.047,-0.001C0.044,-0.002 0.042,-0.004 0.042,-0.006C0.041,-0.008 0.04,-0.01 0.041,-0.012L0.162,-0.62C0.162,-0.622 0.164,-0.624 0.166,-0.626C0.168,-0.628 0.171,-0.629 0.174,-0.631C0.178,-0.632 0.182,-0.633 0.188,-0.634C0.193,-0.634 0.2,-0.635 0.208,-0.635C0.215,-0.635 0.222,-0.634 0.227,-0.634C0.232,-0.633 0.236,-0.632 0.24,-0.631C0.243,-0.629 0.245,-0.628 0.246,-0.626C0.247,-0.624 0.247,-0.622 0.246,-0.62L0.125,-0.012Z" style="fill-rule:nonzero;"/>
            </g>
        </g>
    </g>
</svg>
