<?xml version="1.0" encoding="UTF-8" standalone="no"?>
<!DOCTYPE svg PUBLIC "-//W3C//DTD SVG 1.1//EN" "http://www.w3.org/Graphics/SVG/1.1/DTD/svg11.dtd">
<svg width="100%" height="100%" viewBox="0 0 103 103" version="1.1" xmlns="http://www.w3.org/2000/svg" xmlns:xlink="http://www.w3.org/1999/xlink" xml:space="preserve" xmlns:serif="http://www.serif.com/" style="fill-rule:evenodd;clip-rule:evenodd;stroke-linecap:round;stroke-linejoin:round;stroke-miterlimit:1.5;">
    <g transform="matrix(1,0,0,1,-386,-117)">
        <g id="ol">
            <g id="base-square" serif:id="base square" transform="matrix(8.05848,0,0,8.05848,-2193.04,-1660.44)">
                <path d="M332.628,221.406C332.628,221.242 332.562,221.084 332.446,220.968C332.33,220.851 332.172,220.786 332.007,220.786L320.839,220.786C320.674,220.786 320.517,220.851 320.4,220.968C320.284,221.084 320.219,221.242 320.219,221.406L320.219,232.575C320.219,232.739 320.284,232.897 320.4,233.013C320.517,233.13 320.674,233.195 320.839,233.195L332.007,233.195C332.172,233.195 332.33,233.13 332.446,233.013C332.562,232.897 332.628,232.739 332.628,232.575L332.628,221.406Z" style="fill:none;stroke:black;stroke-opacity:0.87;stroke-width:0.25px;"/>
            </g>
            <g transform="matrix(1.05222,0,0,1.16675,-24.682,-28.2851)">
                <g transform="matrix(1,0,0,1,0.126536,0)">
                    <g transform="matrix(0.926346,0,0,1,48.2408,0)">
                        <path d="M464,139.909C464,139.682 463.892,139.464 463.7,139.303C463.507,139.142 463.246,139.052 462.974,139.052C455.21,139.052 405.79,139.052 398.026,139.052C397.754,139.052 397.493,139.142 397.3,139.303C397.108,139.464 397,139.682 397,139.909C397,142.056 397,147.645 397,149.791C397,150.019 397.108,150.237 397.3,150.397C397.493,150.558 397.754,150.648 398.026,150.648C405.79,150.648 455.21,150.648 462.974,150.648C463.246,150.648 463.507,150.558 463.7,150.397C463.892,150.237 464,150.019 464,149.791C464,147.645 464,142.056 464,139.909Z"/>
                    </g>
                    <g transform="matrix(18.4104,0,0,18.4104,398.718,150.595)">
                        <path d="M0.461,-0.049C0.461,-0.04 0.46,-0.032 0.459,-0.026C0.458,-0.019 0.457,-0.014 0.455,-0.01C0.454,-0.007 0.451,-0.004 0.449,-0.002C0.447,-0.001 0.444,0 0.441,0L0.093,0C0.09,0 0.088,-0.001 0.085,-0.002C0.083,-0.004 0.081,-0.007 0.079,-0.01C0.078,-0.014 0.076,-0.019 0.075,-0.026C0.074,-0.032 0.074,-0.04 0.074,-0.049C0.074,-0.058 0.074,-0.066 0.075,-0.073C0.076,-0.079 0.077,-0.084 0.079,-0.088C0.081,-0.092 0.083,-0.095 0.085,-0.096C0.087,-0.098 0.09,-0.099 0.093,-0.099L0.21,-0.099L0.21,-0.51L0.109,-0.454C0.101,-0.451 0.095,-0.448 0.091,-0.448C0.086,-0.447 0.082,-0.448 0.079,-0.45C0.077,-0.453 0.075,-0.458 0.074,-0.465C0.073,-0.472 0.072,-0.481 0.072,-0.494C0.072,-0.501 0.072,-0.508 0.073,-0.513C0.073,-0.518 0.074,-0.522 0.075,-0.526C0.076,-0.529 0.078,-0.532 0.081,-0.535C0.083,-0.537 0.086,-0.539 0.09,-0.542L0.226,-0.63C0.227,-0.631 0.229,-0.632 0.232,-0.633C0.234,-0.634 0.237,-0.635 0.241,-0.635C0.245,-0.635 0.25,-0.636 0.257,-0.636C0.263,-0.636 0.271,-0.636 0.281,-0.636C0.294,-0.636 0.304,-0.636 0.311,-0.635C0.319,-0.635 0.325,-0.634 0.329,-0.633C0.333,-0.632 0.335,-0.63 0.336,-0.628C0.338,-0.626 0.338,-0.624 0.338,-0.621L0.338,-0.099L0.441,-0.099C0.444,-0.099 0.447,-0.098 0.449,-0.096C0.452,-0.095 0.454,-0.092 0.456,-0.088C0.458,-0.084 0.459,-0.079 0.46,-0.073C0.461,-0.066 0.461,-0.058 0.461,-0.049Z" style="fill-rule:nonzero;"/>
                    </g>
                </g>
                <g transform="matrix(1,0,0,1,-0.455764,-1.61448)">
                    <g transform="matrix(0.926346,0,0,1,49.0602,25.6522)">
                        <path d="M464,139.909C464,139.682 463.892,139.464 463.7,139.303C463.507,139.142 463.246,139.052 462.974,139.052C455.21,139.052 405.79,139.052 398.026,139.052C397.754,139.052 397.493,139.142 397.3,139.303C397.108,139.464 397,139.682 397,139.909C397,142.056 397,147.645 397,149.791C397,150.019 397.108,150.237 397.3,150.397C397.493,150.558 397.754,150.648 398.026,150.648C405.79,150.648 455.21,150.648 462.974,150.648C463.246,150.648 463.507,150.558 463.7,150.397C463.892,150.237 464,150.019 464,149.791C464,147.645 464,142.056 464,139.909Z"/>
                    </g>
                    <g transform="matrix(18.4104,0,0,18.4104,399.603,176.247)">
                        <path d="M0.467,-0.052C0.467,-0.043 0.466,-0.035 0.466,-0.028C0.465,-0.021 0.464,-0.016 0.462,-0.012C0.46,-0.007 0.458,-0.004 0.456,-0.003C0.453,-0.001 0.45,0 0.447,0L0.083,0C0.076,0 0.07,-0.001 0.065,-0.002C0.06,-0.003 0.056,-0.006 0.052,-0.01C0.049,-0.013 0.047,-0.019 0.045,-0.026C0.044,-0.033 0.043,-0.042 0.043,-0.054C0.043,-0.064 0.043,-0.074 0.044,-0.081C0.045,-0.089 0.047,-0.096 0.05,-0.102C0.052,-0.108 0.056,-0.114 0.06,-0.119C0.064,-0.125 0.069,-0.131 0.076,-0.138L0.185,-0.255C0.207,-0.278 0.224,-0.299 0.238,-0.318C0.251,-0.336 0.262,-0.353 0.269,-0.369C0.277,-0.384 0.282,-0.399 0.284,-0.412C0.287,-0.425 0.289,-0.437 0.289,-0.449C0.289,-0.459 0.287,-0.47 0.283,-0.479C0.28,-0.489 0.275,-0.497 0.268,-0.504C0.262,-0.512 0.253,-0.517 0.243,-0.521C0.233,-0.525 0.221,-0.527 0.208,-0.527C0.188,-0.527 0.171,-0.525 0.156,-0.52C0.142,-0.515 0.129,-0.51 0.117,-0.504C0.106,-0.498 0.097,-0.492 0.089,-0.487C0.082,-0.482 0.076,-0.479 0.072,-0.479C0.069,-0.479 0.066,-0.48 0.064,-0.482C0.062,-0.484 0.06,-0.488 0.059,-0.492C0.058,-0.497 0.057,-0.503 0.056,-0.51C0.055,-0.518 0.055,-0.528 0.055,-0.539C0.055,-0.546 0.055,-0.552 0.055,-0.557C0.056,-0.562 0.057,-0.567 0.058,-0.571C0.059,-0.574 0.06,-0.578 0.062,-0.58C0.063,-0.583 0.066,-0.586 0.07,-0.59C0.074,-0.594 0.082,-0.599 0.093,-0.605C0.103,-0.611 0.117,-0.617 0.133,-0.623C0.149,-0.628 0.166,-0.633 0.186,-0.637C0.205,-0.641 0.225,-0.643 0.246,-0.643C0.278,-0.643 0.307,-0.639 0.332,-0.631C0.356,-0.622 0.377,-0.611 0.393,-0.596C0.409,-0.581 0.421,-0.564 0.429,-0.543C0.437,-0.523 0.441,-0.501 0.441,-0.478C0.441,-0.457 0.439,-0.437 0.436,-0.417C0.432,-0.397 0.424,-0.376 0.411,-0.353C0.399,-0.33 0.381,-0.304 0.359,-0.277C0.336,-0.249 0.307,-0.216 0.27,-0.18L0.196,-0.104L0.445,-0.104C0.448,-0.104 0.451,-0.103 0.454,-0.101C0.457,-0.099 0.459,-0.096 0.461,-0.092C0.463,-0.088 0.464,-0.083 0.465,-0.076C0.466,-0.069 0.467,-0.061 0.467,-0.052Z" style="fill-rule:nonzero;"/>
                    </g>
                </g>
                <g transform="matrix(1,0,0,1,0.409704,-2.84217e-14)">
                    <g transform="matrix(0.926346,0,0,1,48.2408,48.0755)">
                        <path d="M464,139.909C464,139.682 463.892,139.464 463.7,139.303C463.507,139.142 463.246,139.052 462.974,139.052C455.21,139.052 405.79,139.052 398.026,139.052C397.754,139.052 397.493,139.142 397.3,139.303C397.108,139.464 397,139.682 397,139.909C397,142.056 397,147.645 397,149.791C397,150.019 397.108,150.237 397.3,150.397C397.493,150.558 397.754,150.648 398.026,150.648C405.79,150.648 455.21,150.648 462.974,150.648C463.246,150.648 463.507,150.558 463.7,150.397C463.892,150.237 464,150.019 464,149.791C464,147.645 464,142.056 464,139.909Z"/>
                    </g>
                    <g transform="matrix(18.4104,0,0,18.4104,398.718,198.67)">
                        <path d="M0.464,-0.185C0.464,-0.153 0.458,-0.125 0.446,-0.101C0.434,-0.077 0.417,-0.056 0.396,-0.04C0.374,-0.023 0.348,-0.01 0.318,-0.002C0.288,0.007 0.256,0.011 0.22,0.011C0.199,0.011 0.179,0.01 0.16,0.007C0.141,0.003 0.124,0 0.11,-0.005C0.095,-0.009 0.083,-0.014 0.074,-0.019C0.064,-0.024 0.058,-0.028 0.055,-0.03C0.052,-0.033 0.05,-0.036 0.049,-0.039C0.047,-0.042 0.046,-0.046 0.045,-0.051C0.044,-0.055 0.043,-0.06 0.042,-0.067C0.042,-0.074 0.042,-0.082 0.042,-0.091C0.042,-0.107 0.043,-0.118 0.045,-0.124C0.048,-0.13 0.052,-0.133 0.057,-0.133C0.06,-0.133 0.066,-0.131 0.074,-0.126C0.082,-0.122 0.092,-0.117 0.104,-0.112C0.117,-0.107 0.131,-0.102 0.148,-0.098C0.165,-0.094 0.183,-0.091 0.205,-0.091C0.222,-0.091 0.238,-0.093 0.252,-0.098C0.266,-0.102 0.277,-0.108 0.287,-0.115C0.296,-0.123 0.304,-0.132 0.308,-0.143C0.313,-0.154 0.315,-0.166 0.315,-0.18C0.315,-0.194 0.313,-0.208 0.307,-0.219C0.301,-0.231 0.293,-0.241 0.281,-0.249C0.27,-0.258 0.256,-0.264 0.239,-0.269C0.222,-0.273 0.202,-0.275 0.179,-0.275L0.124,-0.275C0.12,-0.275 0.116,-0.276 0.113,-0.277C0.11,-0.278 0.108,-0.281 0.106,-0.284C0.104,-0.288 0.103,-0.293 0.102,-0.299C0.101,-0.305 0.101,-0.314 0.101,-0.324C0.101,-0.333 0.101,-0.341 0.102,-0.347C0.103,-0.353 0.104,-0.358 0.106,-0.361C0.108,-0.364 0.11,-0.366 0.113,-0.368C0.115,-0.369 0.119,-0.37 0.123,-0.37L0.178,-0.37C0.197,-0.37 0.213,-0.372 0.228,-0.376C0.243,-0.381 0.255,-0.387 0.265,-0.395C0.275,-0.403 0.282,-0.413 0.288,-0.425C0.293,-0.436 0.295,-0.449 0.295,-0.463C0.295,-0.474 0.294,-0.484 0.29,-0.493C0.286,-0.503 0.281,-0.511 0.274,-0.518C0.267,-0.525 0.258,-0.531 0.247,-0.535C0.236,-0.539 0.223,-0.541 0.208,-0.541C0.191,-0.541 0.175,-0.538 0.16,-0.533C0.145,-0.528 0.132,-0.523 0.12,-0.517C0.108,-0.511 0.098,-0.505 0.09,-0.5C0.081,-0.495 0.075,-0.492 0.071,-0.492C0.069,-0.492 0.066,-0.493 0.064,-0.494C0.063,-0.495 0.061,-0.497 0.06,-0.5C0.058,-0.504 0.057,-0.508 0.057,-0.515C0.056,-0.521 0.056,-0.529 0.056,-0.539C0.056,-0.547 0.056,-0.553 0.056,-0.559C0.056,-0.564 0.057,-0.569 0.058,-0.572C0.059,-0.576 0.06,-0.579 0.062,-0.582C0.063,-0.584 0.066,-0.587 0.069,-0.59C0.072,-0.593 0.079,-0.598 0.089,-0.604C0.099,-0.61 0.112,-0.616 0.127,-0.622C0.142,-0.628 0.16,-0.633 0.18,-0.637C0.2,-0.641 0.222,-0.643 0.245,-0.643C0.276,-0.643 0.303,-0.639 0.326,-0.632C0.35,-0.625 0.37,-0.615 0.386,-0.601C0.402,-0.588 0.414,-0.571 0.423,-0.552C0.431,-0.532 0.435,-0.51 0.435,-0.485C0.435,-0.466 0.433,-0.448 0.428,-0.431C0.423,-0.415 0.416,-0.4 0.406,-0.387C0.397,-0.374 0.385,-0.363 0.371,-0.354C0.357,-0.344 0.34,-0.338 0.322,-0.333L0.322,-0.332C0.344,-0.329 0.364,-0.323 0.381,-0.315C0.399,-0.306 0.414,-0.295 0.426,-0.282C0.438,-0.269 0.448,-0.254 0.454,-0.238C0.461,-0.222 0.464,-0.204 0.464,-0.185Z" style="fill-rule:nonzero;"/>
                    </g>
                </g>
            </g>
        </g>
    </g>
</svg>
