<?xml version="1.0" encoding="UTF-8" standalone="no"?>
<!DOCTYPE svg PUBLIC "-//W3C//DTD SVG 1.1//EN" "http://www.w3.org/Graphics/SVG/1.1/DTD/svg11.dtd">
<svg width="100%" height="100%" viewBox="0 0 103 103" version="1.1" xmlns="http://www.w3.org/2000/svg" xmlns:xlink="http://www.w3.org/1999/xlink" xml:space="preserve" xmlns:serif="http://www.serif.com/" style="fill-rule:evenodd;clip-rule:evenodd;stroke-linecap:round;stroke-linejoin:round;stroke-miterlimit:1.5;">
    <g transform="matrix(1,0,0,1,-721,-5)">
        <g id="strike">
            <g id="base-square" serif:id="base square" transform="matrix(8.05848,0,0,8.05848,-1858.04,-1772.44)">
                <path d="M332.628,221.406C332.628,221.242 332.562,221.084 332.446,220.968C332.33,220.851 332.172,220.786 332.007,220.786L320.839,220.786C320.674,220.786 320.517,220.851 320.4,220.968C320.284,221.084 320.219,221.242 320.219,221.406L320.219,232.575C320.219,232.739 320.284,232.897 320.4,233.013C320.517,233.13 320.674,233.195 320.839,233.195L332.007,233.195C332.172,233.195 332.33,233.13 332.446,233.013C332.562,232.897 332.628,232.739 332.628,232.575L332.628,221.406Z" style="fill:none;stroke:black;stroke-opacity:0.87;stroke-width:0.25px;"/>
            </g>
            <g transform="matrix(0.611666,0,0,0.611666,248.095,40.3129)">
                <g transform="matrix(100,0,0,100,779.185,60.3038)">
                    <path d="M0.586,-0.048C0.59,-0.036 0.593,-0.027 0.594,-0.02C0.595,-0.013 0.593,-0.008 0.59,-0.005C0.586,-0.001 0.58,0.001 0.571,0.002C0.562,0.003 0.549,0.003 0.533,0.003C0.517,0.003 0.504,0.003 0.494,0.002C0.485,0.002 0.478,0.001 0.473,-0.001C0.468,-0.002 0.465,-0.004 0.463,-0.007C0.461,-0.009 0.459,-0.013 0.458,-0.017L0.416,-0.144L0.178,-0.144L0.138,-0.021C0.137,-0.016 0.135,-0.012 0.133,-0.009C0.131,-0.006 0.128,-0.003 0.123,-0.002C0.118,0 0.111,0.001 0.103,0.002C0.094,0.003 0.083,0.003 0.069,0.003C0.054,0.003 0.042,0.002 0.034,0.001C0.025,0 0.019,-0.002 0.016,-0.006C0.013,-0.009 0.012,-0.015 0.013,-0.021C0.014,-0.028 0.016,-0.037 0.02,-0.049L0.215,-0.609C0.217,-0.615 0.219,-0.619 0.222,-0.623C0.224,-0.626 0.228,-0.629 0.234,-0.631C0.24,-0.632 0.248,-0.634 0.258,-0.634C0.268,-0.635 0.281,-0.635 0.298,-0.635C0.317,-0.635 0.332,-0.635 0.344,-0.634C0.355,-0.634 0.364,-0.632 0.37,-0.631C0.377,-0.629 0.381,-0.626 0.384,-0.623C0.387,-0.619 0.389,-0.614 0.391,-0.608L0.586,-0.048ZM0.296,-0.511L0.296,-0.511L0.207,-0.243L0.386,-0.243L0.296,-0.511Z" style="fill-rule:nonzero;"/>
                </g>
                <g transform="matrix(100,0,0,100,839.781,60.3038)">
                    <path d="M0.5,-0.24C0.5,-0.201 0.496,-0.167 0.487,-0.136C0.479,-0.105 0.467,-0.078 0.451,-0.057C0.435,-0.035 0.415,-0.018 0.392,-0.006C0.369,0.005 0.342,0.011 0.313,0.011C0.298,0.011 0.284,0.01 0.271,0.007C0.259,0.004 0.247,0 0.235,-0.006C0.224,-0.013 0.212,-0.02 0.201,-0.03C0.19,-0.039 0.178,-0.051 0.167,-0.064L0.167,-0.017C0.167,-0.013 0.166,-0.01 0.164,-0.008C0.162,-0.005 0.159,-0.003 0.155,-0.001C0.151,0 0.146,0.001 0.139,0.002C0.132,0.003 0.124,0.003 0.114,0.003C0.104,0.003 0.095,0.003 0.089,0.002C0.082,0.001 0.077,0 0.073,-0.001C0.068,-0.003 0.066,-0.005 0.064,-0.008C0.062,-0.01 0.062,-0.013 0.062,-0.017L0.062,-0.659C0.062,-0.662 0.063,-0.665 0.064,-0.667C0.066,-0.67 0.07,-0.672 0.074,-0.674C0.079,-0.676 0.085,-0.677 0.093,-0.678C0.101,-0.679 0.111,-0.68 0.123,-0.68C0.135,-0.68 0.145,-0.679 0.153,-0.678C0.161,-0.677 0.167,-0.676 0.172,-0.674C0.176,-0.672 0.18,-0.67 0.182,-0.667C0.184,-0.665 0.185,-0.662 0.185,-0.659L0.185,-0.418C0.196,-0.429 0.207,-0.438 0.218,-0.446C0.229,-0.454 0.24,-0.461 0.251,-0.466C0.262,-0.471 0.273,-0.474 0.285,-0.477C0.297,-0.479 0.309,-0.48 0.322,-0.48C0.354,-0.48 0.382,-0.474 0.404,-0.461C0.427,-0.448 0.445,-0.431 0.459,-0.409C0.473,-0.387 0.484,-0.361 0.49,-0.332C0.497,-0.303 0.5,-0.272 0.5,-0.24ZM0.373,-0.231C0.373,-0.25 0.371,-0.268 0.368,-0.285C0.366,-0.302 0.361,-0.318 0.354,-0.331C0.347,-0.344 0.338,-0.355 0.327,-0.363C0.316,-0.371 0.303,-0.375 0.286,-0.375C0.278,-0.375 0.27,-0.374 0.262,-0.372C0.254,-0.369 0.246,-0.365 0.238,-0.36C0.23,-0.354 0.221,-0.347 0.212,-0.338C0.204,-0.33 0.194,-0.319 0.185,-0.306L0.185,-0.161C0.202,-0.139 0.218,-0.122 0.234,-0.111C0.25,-0.099 0.266,-0.093 0.284,-0.093C0.3,-0.093 0.313,-0.097 0.324,-0.105C0.335,-0.114 0.344,-0.124 0.352,-0.137C0.359,-0.15 0.364,-0.165 0.368,-0.182C0.371,-0.198 0.373,-0.215 0.373,-0.231Z" style="fill-rule:nonzero;"/>
                </g>
                <g transform="matrix(100,0,0,100,893.443,60.3038)">
                    <path d="M0.391,-0.086C0.391,-0.077 0.391,-0.07 0.39,-0.065C0.39,-0.059 0.389,-0.054 0.388,-0.05C0.388,-0.046 0.387,-0.043 0.385,-0.041C0.384,-0.038 0.382,-0.035 0.378,-0.031C0.374,-0.028 0.367,-0.023 0.358,-0.018C0.348,-0.012 0.338,-0.008 0.326,-0.003C0.314,0.001 0.301,0.004 0.286,0.007C0.272,0.009 0.258,0.011 0.243,0.011C0.209,0.011 0.179,0.006 0.154,-0.005C0.128,-0.015 0.106,-0.031 0.088,-0.051C0.071,-0.071 0.058,-0.096 0.049,-0.125C0.04,-0.155 0.035,-0.188 0.035,-0.226C0.035,-0.27 0.041,-0.307 0.052,-0.339C0.062,-0.371 0.078,-0.397 0.097,-0.418C0.117,-0.439 0.14,-0.454 0.167,-0.464C0.193,-0.474 0.222,-0.479 0.254,-0.479C0.267,-0.479 0.28,-0.478 0.293,-0.476C0.305,-0.474 0.317,-0.471 0.328,-0.467C0.339,-0.463 0.349,-0.458 0.357,-0.454C0.366,-0.449 0.372,-0.444 0.375,-0.441C0.379,-0.437 0.382,-0.434 0.383,-0.432C0.385,-0.429 0.386,-0.426 0.386,-0.422C0.387,-0.418 0.388,-0.414 0.388,-0.408C0.389,-0.402 0.389,-0.395 0.389,-0.387C0.389,-0.368 0.388,-0.355 0.384,-0.347C0.381,-0.34 0.377,-0.336 0.372,-0.336C0.366,-0.336 0.36,-0.338 0.354,-0.343C0.348,-0.347 0.34,-0.352 0.332,-0.358C0.324,-0.363 0.313,-0.368 0.302,-0.373C0.29,-0.378 0.276,-0.38 0.26,-0.38C0.228,-0.38 0.203,-0.368 0.187,-0.343C0.17,-0.318 0.161,-0.282 0.161,-0.235C0.161,-0.211 0.163,-0.191 0.167,-0.173C0.172,-0.155 0.178,-0.14 0.186,-0.128C0.195,-0.116 0.205,-0.107 0.218,-0.101C0.23,-0.095 0.245,-0.092 0.261,-0.092C0.278,-0.092 0.293,-0.094 0.305,-0.099C0.317,-0.104 0.328,-0.11 0.337,-0.116C0.346,-0.122 0.354,-0.128 0.36,-0.133C0.366,-0.138 0.371,-0.141 0.375,-0.141C0.378,-0.141 0.381,-0.14 0.383,-0.138C0.385,-0.137 0.386,-0.134 0.387,-0.129C0.389,-0.125 0.389,-0.119 0.39,-0.112C0.391,-0.105 0.391,-0.097 0.391,-0.086Z" style="fill-rule:nonzero;"/>
                </g>
                <rect x="779.185" y="35.304" width="156.104" height="9.082" style="fill-rule:nonzero;"/>
            </g>
        </g>
    </g>
</svg>
