<?xml version="1.0" encoding="UTF-8" standalone="no"?>
<!DOCTYPE svg PUBLIC "-//W3C//DTD SVG 1.1//EN" "http://www.w3.org/Graphics/SVG/1.1/DTD/svg11.dtd">
<svg width="100%" height="100%" viewBox="0 0 103 103" version="1.1" xmlns="http://www.w3.org/2000/svg" xmlns:xlink="http://www.w3.org/1999/xlink" xml:space="preserve" xmlns:serif="http://www.serif.com/" style="fill-rule:evenodd;clip-rule:evenodd;stroke-linecap:round;stroke-linejoin:round;stroke-miterlimit:1.5;">
    <g transform="matrix(1,0,0,1,-145,-115)">
        <g id="sub">
            <g id="base-square" serif:id="base square" transform="matrix(8.05848,0,0,8.05848,-2434.04,-1662.44)">
                <path d="M332.628,221.406C332.628,221.242 332.562,221.084 332.446,220.968C332.33,220.851 332.172,220.786 332.007,220.786L320.839,220.786C320.674,220.786 320.517,220.851 320.4,220.968C320.284,221.084 320.219,221.242 320.219,221.406L320.219,232.575C320.219,232.739 320.284,232.897 320.4,233.013C320.517,233.13 320.674,233.195 320.839,233.195L332.007,233.195C332.172,233.195 332.33,233.13 332.446,233.013C332.562,232.897 332.628,232.739 332.628,232.575L332.628,221.406Z" style="fill:none;stroke:black;stroke-opacity:0.87;stroke-width:0.25px;"/>
            </g>
            <g transform="matrix(0.993238,0,0,0.993238,-53.5443,22.0359)">
                <g transform="matrix(100,0,0,100,211.379,173.943)">
                    <path d="M0.486,-0.03C0.491,-0.023 0.493,-0.017 0.494,-0.013C0.495,-0.009 0.494,-0.006 0.491,-0.003C0.488,-0.001 0.483,0.001 0.476,0.002C0.47,0.003 0.461,0.003 0.45,0.003C0.439,0.003 0.431,0.003 0.425,0.002C0.419,0.002 0.415,0.001 0.411,0C0.408,-0.002 0.405,-0.003 0.404,-0.005C0.402,-0.007 0.4,-0.009 0.399,-0.012L0.258,-0.264L0.116,-0.012C0.115,-0.009 0.113,-0.007 0.111,-0.005C0.109,-0.003 0.106,-0.001 0.103,0C0.099,0.001 0.095,0.002 0.089,0.002C0.083,0.003 0.075,0.003 0.065,0.003C0.055,0.003 0.046,0.003 0.04,0.002C0.034,0.001 0.03,-0.001 0.027,-0.003C0.025,-0.006 0.024,-0.009 0.025,-0.013C0.025,-0.017 0.028,-0.023 0.032,-0.03L0.205,-0.321L0.04,-0.602C0.036,-0.609 0.034,-0.615 0.032,-0.619C0.031,-0.623 0.032,-0.627 0.035,-0.629C0.037,-0.632 0.042,-0.633 0.048,-0.634C0.055,-0.634 0.064,-0.635 0.075,-0.635C0.085,-0.635 0.093,-0.635 0.099,-0.634C0.105,-0.634 0.11,-0.633 0.114,-0.632C0.117,-0.63 0.12,-0.629 0.122,-0.627C0.123,-0.625 0.125,-0.622 0.127,-0.62L0.263,-0.383L0.397,-0.62C0.399,-0.622 0.401,-0.625 0.402,-0.627C0.404,-0.629 0.406,-0.63 0.409,-0.632C0.413,-0.633 0.417,-0.634 0.422,-0.634C0.428,-0.635 0.435,-0.635 0.445,-0.635C0.455,-0.635 0.463,-0.634 0.469,-0.634C0.476,-0.633 0.48,-0.631 0.483,-0.629C0.486,-0.627 0.487,-0.623 0.486,-0.619C0.486,-0.615 0.483,-0.609 0.479,-0.602L0.315,-0.323L0.486,-0.03Z" style="fill-rule:nonzero;"/>
                </g>
                <g transform="matrix(100,0,0,100,263.283,180.943)">
                    <path d="M0.263,-0.026C0.263,-0.017 0.262,-0.01 0.26,-0.006C0.257,-0.002 0.255,0 0.251,0L0.05,0C0.046,0 0.043,0 0.04,-0.001C0.038,-0.002 0.036,-0.003 0.034,-0.005C0.033,-0.007 0.031,-0.01 0.031,-0.013C0.03,-0.017 0.029,-0.022 0.029,-0.028C0.029,-0.033 0.029,-0.037 0.03,-0.04C0.03,-0.044 0.031,-0.047 0.032,-0.05C0.033,-0.053 0.034,-0.055 0.036,-0.058C0.038,-0.06 0.04,-0.063 0.044,-0.066L0.109,-0.125C0.121,-0.137 0.131,-0.147 0.139,-0.155C0.147,-0.164 0.154,-0.172 0.159,-0.179C0.164,-0.187 0.167,-0.194 0.169,-0.201C0.171,-0.208 0.172,-0.216 0.172,-0.224C0.172,-0.237 0.168,-0.247 0.159,-0.255C0.15,-0.264 0.139,-0.268 0.124,-0.268C0.112,-0.268 0.103,-0.266 0.094,-0.264C0.085,-0.261 0.078,-0.258 0.072,-0.255C0.065,-0.252 0.06,-0.249 0.056,-0.247C0.051,-0.244 0.048,-0.243 0.046,-0.243C0.045,-0.243 0.043,-0.243 0.042,-0.244C0.041,-0.245 0.04,-0.247 0.039,-0.249C0.038,-0.251 0.037,-0.254 0.037,-0.258C0.036,-0.261 0.036,-0.266 0.036,-0.271C0.036,-0.278 0.037,-0.283 0.037,-0.286C0.038,-0.289 0.04,-0.292 0.042,-0.295C0.044,-0.298 0.049,-0.3 0.055,-0.304C0.061,-0.307 0.069,-0.31 0.077,-0.313C0.086,-0.316 0.096,-0.318 0.106,-0.32C0.117,-0.322 0.128,-0.323 0.139,-0.323C0.157,-0.323 0.173,-0.321 0.187,-0.317C0.2,-0.312 0.212,-0.306 0.221,-0.298C0.23,-0.29 0.237,-0.28 0.241,-0.269C0.245,-0.258 0.248,-0.246 0.248,-0.232C0.248,-0.222 0.246,-0.211 0.243,-0.201C0.241,-0.191 0.236,-0.18 0.229,-0.169C0.223,-0.158 0.213,-0.147 0.201,-0.134C0.19,-0.122 0.175,-0.108 0.157,-0.093L0.11,-0.054L0.25,-0.054C0.254,-0.054 0.257,-0.052 0.26,-0.047C0.262,-0.042 0.263,-0.035 0.263,-0.026Z" style="fill-rule:nonzero;"/>
                </g>
            </g>
        </g>
    </g>
</svg>
