<?xml version="1.0" encoding="UTF-8" standalone="no"?>
<!DOCTYPE svg PUBLIC "-//W3C//DTD SVG 1.1//EN" "http://www.w3.org/Graphics/SVG/1.1/DTD/svg11.dtd">
<svg width="100%" height="100%" viewBox="0 0 103 103" version="1.1" xmlns="http://www.w3.org/2000/svg" xmlns:xlink="http://www.w3.org/1999/xlink" xml:space="preserve" xmlns:serif="http://www.serif.com/" style="fill-rule:evenodd;clip-rule:evenodd;stroke-linecap:round;stroke-linejoin:round;stroke-miterlimit:1.5;">
    <g transform="matrix(1,0,0,1,-11,-117)">
        <g id="super">
            <g id="base-square" serif:id="base square" transform="matrix(8.05848,0,0,8.05848,-2568.04,-1660.44)">
                <path d="M332.628,221.406C332.628,221.242 332.562,221.084 332.446,220.968C332.33,220.851 332.172,220.786 332.007,220.786L320.839,220.786C320.674,220.786 320.517,220.851 320.4,220.968C320.284,221.084 320.219,221.242 320.219,221.406L320.219,232.575C320.219,232.739 320.284,232.897 320.4,233.013C320.517,233.13 320.674,233.195 320.839,233.195L332.007,233.195C332.172,233.195 332.33,233.13 332.446,233.013C332.562,232.897 332.628,232.739 332.628,232.575L332.628,221.406Z" style="fill:none;stroke:black;stroke-opacity:0.87;stroke-width:0.25px;"/>
            </g>
            <g transform="matrix(0.945023,0,0,0.945023,-25.2694,36.1654)">
                <g transform="matrix(100,0,0,100,50.6249,177.046)">
                    <path d="M0.486,-0.03C0.491,-0.023 0.493,-0.017 0.494,-0.013C0.495,-0.009 0.494,-0.006 0.491,-0.003C0.488,-0.001 0.483,0.001 0.476,0.002C0.47,0.003 0.461,0.003 0.45,0.003C0.439,0.003 0.431,0.003 0.425,0.002C0.419,0.002 0.415,0.001 0.411,0C0.408,-0.002 0.405,-0.003 0.404,-0.005C0.402,-0.007 0.4,-0.009 0.399,-0.012L0.258,-0.264L0.116,-0.012C0.115,-0.009 0.113,-0.007 0.111,-0.005C0.109,-0.003 0.106,-0.001 0.103,0C0.099,0.001 0.095,0.002 0.089,0.002C0.083,0.003 0.075,0.003 0.065,0.003C0.055,0.003 0.046,0.003 0.04,0.002C0.034,0.001 0.03,-0.001 0.027,-0.003C0.025,-0.006 0.024,-0.009 0.025,-0.013C0.025,-0.017 0.028,-0.023 0.032,-0.03L0.205,-0.321L0.04,-0.602C0.036,-0.609 0.034,-0.615 0.032,-0.619C0.031,-0.623 0.032,-0.627 0.035,-0.629C0.037,-0.632 0.042,-0.633 0.048,-0.634C0.055,-0.634 0.064,-0.635 0.075,-0.635C0.085,-0.635 0.093,-0.635 0.099,-0.634C0.105,-0.634 0.11,-0.633 0.114,-0.632C0.117,-0.63 0.12,-0.629 0.122,-0.627C0.123,-0.625 0.125,-0.622 0.127,-0.62L0.263,-0.383L0.397,-0.62C0.399,-0.622 0.401,-0.625 0.402,-0.627C0.404,-0.629 0.406,-0.63 0.409,-0.632C0.413,-0.633 0.417,-0.634 0.422,-0.634C0.428,-0.635 0.435,-0.635 0.445,-0.635C0.455,-0.635 0.463,-0.634 0.469,-0.634C0.476,-0.633 0.48,-0.631 0.483,-0.629C0.486,-0.627 0.487,-0.623 0.486,-0.619C0.486,-0.615 0.483,-0.609 0.479,-0.602L0.315,-0.323L0.486,-0.03Z" style="fill-rule:nonzero;"/>
                </g>
                <g transform="matrix(100,0,0,100,102.529,177.046)">
                    <path d="M0.3,-0.381C0.3,-0.371 0.299,-0.364 0.297,-0.359C0.295,-0.354 0.292,-0.352 0.288,-0.352L0.058,-0.352C0.055,-0.352 0.051,-0.352 0.049,-0.353C0.046,-0.354 0.044,-0.355 0.042,-0.357C0.04,-0.359 0.039,-0.362 0.038,-0.365C0.037,-0.369 0.037,-0.373 0.037,-0.379C0.037,-0.384 0.037,-0.389 0.037,-0.392C0.038,-0.396 0.039,-0.399 0.04,-0.402C0.041,-0.405 0.043,-0.408 0.045,-0.411C0.047,-0.414 0.05,-0.417 0.053,-0.42L0.128,-0.494C0.144,-0.509 0.157,-0.523 0.167,-0.536C0.177,-0.549 0.185,-0.56 0.19,-0.571C0.196,-0.581 0.2,-0.591 0.201,-0.6C0.203,-0.608 0.204,-0.617 0.204,-0.625C0.204,-0.64 0.198,-0.652 0.188,-0.662C0.178,-0.672 0.163,-0.677 0.144,-0.677C0.132,-0.677 0.121,-0.675 0.111,-0.672C0.101,-0.669 0.093,-0.665 0.086,-0.662C0.078,-0.658 0.072,-0.655 0.067,-0.651C0.062,-0.648 0.058,-0.646 0.055,-0.646C0.054,-0.646 0.052,-0.647 0.051,-0.648C0.05,-0.649 0.048,-0.651 0.047,-0.653C0.046,-0.656 0.046,-0.659 0.045,-0.662C0.045,-0.666 0.044,-0.671 0.044,-0.676C0.044,-0.683 0.045,-0.689 0.046,-0.693C0.047,-0.698 0.049,-0.701 0.052,-0.704C0.055,-0.707 0.06,-0.711 0.066,-0.715C0.073,-0.719 0.081,-0.722 0.091,-0.726C0.101,-0.729 0.111,-0.732 0.123,-0.734C0.135,-0.737 0.147,-0.738 0.16,-0.738C0.181,-0.738 0.199,-0.735 0.214,-0.73C0.23,-0.725 0.242,-0.718 0.252,-0.708C0.263,-0.699 0.27,-0.688 0.275,-0.676C0.28,-0.663 0.283,-0.649 0.283,-0.635C0.283,-0.623 0.282,-0.612 0.28,-0.601C0.277,-0.59 0.273,-0.577 0.265,-0.563C0.258,-0.549 0.247,-0.534 0.233,-0.517C0.219,-0.5 0.2,-0.481 0.176,-0.458L0.124,-0.409L0.287,-0.409C0.291,-0.409 0.294,-0.407 0.297,-0.402C0.299,-0.397 0.3,-0.39 0.3,-0.381Z" style="fill-rule:nonzero;"/>
                </g>
            </g>
        </g>
    </g>
</svg>
