<?xml version="1.0" encoding="UTF-8" standalone="no"?>
<!DOCTYPE svg PUBLIC "-//W3C//DTD SVG 1.1//EN" "http://www.w3.org/Graphics/SVG/1.1/DTD/svg11.dtd">
<svg width="100%" height="100%" viewBox="0 0 103 103" version="1.1" xmlns="http://www.w3.org/2000/svg" xmlns:xlink="http://www.w3.org/1999/xlink" xml:space="preserve" xmlns:serif="http://www.serif.com/" style="fill-rule:evenodd;clip-rule:evenodd;stroke-linecap:round;stroke-linejoin:round;stroke-miterlimit:1.5;">
    <g transform="matrix(1,0,0,1,-258,-117)">
        <g id="ul">
            <g id="base-square" serif:id="base square" transform="matrix(8.05848,0,0,8.05848,-2321.04,-1660.44)">
                <path d="M332.628,221.406C332.628,221.242 332.562,221.084 332.446,220.968C332.33,220.851 332.172,220.786 332.007,220.786L320.839,220.786C320.674,220.786 320.517,220.851 320.4,220.968C320.284,221.084 320.219,221.242 320.219,221.406L320.219,232.575C320.219,232.739 320.284,232.897 320.4,233.013C320.517,233.13 320.674,233.195 320.839,233.195L332.007,233.195C332.172,233.195 332.33,233.13 332.446,233.013C332.562,232.897 332.628,232.739 332.628,232.575L332.628,221.406Z" style="fill:none;stroke:black;stroke-opacity:0.87;stroke-width:0.25px;"/>
            </g>
            <g transform="matrix(0.948144,0,0,1.02887,16.8238,0.291788)">
                <g transform="matrix(1,0,0,1,0.820271,0)">
                    <path d="M351.156,130.719C351.156,130.167 350.709,129.719 350.156,129.719C342.508,129.719 293.367,129.719 285.719,129.719C285.166,129.719 284.719,130.167 284.719,130.719C284.719,133.185 284.719,139.534 284.719,142C284.719,142.552 285.166,143 285.719,143C293.367,143 342.508,143 350.156,143C350.709,143 351.156,142.552 351.156,142C351.156,139.534 351.156,133.185 351.156,130.719ZM277.719,130.719C277.719,130.167 277.271,129.719 276.719,129.719L265.438,129.719C264.885,129.719 264.438,130.167 264.438,130.719L264.438,142C264.438,142.552 264.885,143 265.438,143L276.719,143C277.271,143 277.719,142.552 277.719,142L277.719,130.719Z"/>
                </g>
                <g transform="matrix(1,0,0,1,0.820271,27.3775)">
                    <path d="M351.156,130.719C351.156,130.167 350.709,129.719 350.156,129.719C342.508,129.719 293.367,129.719 285.719,129.719C285.166,129.719 284.719,130.167 284.719,130.719C284.719,133.185 284.719,139.534 284.719,142C284.719,142.552 285.166,143 285.719,143C293.367,143 342.508,143 350.156,143C350.709,143 351.156,142.552 351.156,142C351.156,139.534 351.156,133.185 351.156,130.719ZM277.719,130.719C277.719,130.167 277.271,129.719 276.719,129.719L265.438,129.719C264.885,129.719 264.438,130.167 264.438,130.719L264.438,142C264.438,142.552 264.885,143 265.438,143L276.719,143C277.271,143 277.719,142.552 277.719,142L277.719,130.719Z"/>
                </g>
                <g transform="matrix(1,0,0,1,0.820271,54.755)">
                    <path d="M351.156,130.719C351.156,130.167 350.709,129.719 350.156,129.719C342.508,129.719 293.367,129.719 285.719,129.719C285.166,129.719 284.719,130.167 284.719,130.719C284.719,133.185 284.719,139.534 284.719,142C284.719,142.552 285.166,143 285.719,143C293.367,143 342.508,143 350.156,143C350.709,143 351.156,142.552 351.156,142C351.156,139.534 351.156,133.185 351.156,130.719ZM277.719,130.719C277.719,130.167 277.271,129.719 276.719,129.719L265.438,129.719C264.885,129.719 264.438,130.167 264.438,130.719L264.438,142C264.438,142.552 264.885,143 265.438,143L276.719,143C277.271,143 277.719,142.552 277.719,142L277.719,130.719Z"/>
                </g>
            </g>
        </g>
    </g>
</svg>
