<?xml version="1.0" encoding="UTF-8" standalone="no"?>
<!DOCTYPE svg PUBLIC "-//W3C//DTD SVG 1.1//EN" "http://www.w3.org/Graphics/SVG/1.1/DTD/svg11.dtd">
<svg width="100%" height="100%" viewBox="0 0 103 103" version="1.1" xmlns="http://www.w3.org/2000/svg" xmlns:xlink="http://www.w3.org/1999/xlink" xml:space="preserve" xmlns:serif="http://www.serif.com/" style="fill-rule:evenodd;clip-rule:evenodd;stroke-linecap:round;stroke-linejoin:round;stroke-miterlimit:1.5;">
    <g transform="matrix(1,0,0,1,-466,-5)">
        <g id="underline">
            <g id="base-square" serif:id="base square" transform="matrix(8.05848,0,0,8.05848,-2113.01,-1772.44)">
                <path d="M332.628,221.406C332.628,221.242 332.562,221.084 332.446,220.968C332.33,220.851 332.172,220.786 332.007,220.786L320.839,220.786C320.674,220.786 320.517,220.851 320.4,220.968C320.284,221.084 320.219,221.242 320.219,221.406L320.219,232.575C320.219,232.739 320.284,232.897 320.4,233.013C320.517,233.13 320.674,233.195 320.839,233.195L332.007,233.195C332.172,233.195 332.33,233.13 332.446,233.013C332.562,232.897 332.628,232.739 332.628,232.575L332.628,221.406Z" style="fill:none;stroke:black;stroke-opacity:0.87;stroke-width:0.25px;"/>
            </g>
            <g transform="matrix(0.861425,0,0,0.861425,59.3817,20.1644)">
                <g transform="matrix(100,0,0,100,499.69,65.2796)">
                    <path d="M0.559,-0.233C0.559,-0.195 0.553,-0.161 0.542,-0.131C0.531,-0.101 0.515,-0.075 0.494,-0.054C0.473,-0.033 0.448,-0.018 0.418,-0.007C0.388,0.004 0.354,0.009 0.316,0.009C0.281,0.009 0.249,0.004 0.221,-0.006C0.192,-0.016 0.167,-0.031 0.147,-0.051C0.126,-0.07 0.111,-0.095 0.1,-0.125C0.089,-0.154 0.083,-0.188 0.083,-0.227L0.083,-0.619C0.083,-0.622 0.084,-0.624 0.085,-0.626C0.086,-0.628 0.089,-0.629 0.092,-0.631C0.095,-0.632 0.099,-0.633 0.104,-0.634C0.11,-0.634 0.117,-0.635 0.125,-0.635C0.133,-0.635 0.139,-0.634 0.145,-0.634C0.151,-0.633 0.155,-0.632 0.158,-0.631C0.161,-0.629 0.163,-0.628 0.165,-0.626C0.166,-0.624 0.167,-0.622 0.167,-0.619L0.167,-0.237C0.167,-0.208 0.17,-0.182 0.177,-0.161C0.184,-0.139 0.195,-0.121 0.208,-0.106C0.222,-0.092 0.238,-0.081 0.257,-0.073C0.276,-0.066 0.298,-0.063 0.321,-0.063C0.346,-0.063 0.367,-0.066 0.386,-0.073C0.406,-0.08 0.422,-0.091 0.435,-0.105C0.448,-0.12 0.458,-0.138 0.465,-0.159C0.472,-0.18 0.476,-0.205 0.476,-0.233L0.476,-0.619C0.476,-0.622 0.476,-0.624 0.478,-0.626C0.479,-0.628 0.481,-0.629 0.484,-0.631C0.488,-0.632 0.492,-0.633 0.497,-0.634C0.503,-0.634 0.509,-0.635 0.518,-0.635C0.525,-0.635 0.532,-0.634 0.537,-0.634C0.543,-0.633 0.547,-0.632 0.55,-0.631C0.553,-0.629 0.555,-0.628 0.557,-0.626C0.558,-0.624 0.559,-0.622 0.559,-0.619L0.559,-0.233Z" style="fill-rule:nonzero;"/>
                </g>
                <rect x="499.69" y="76.608" width="64.16" height="6.543" style="fill-rule:nonzero;"/>
            </g>
        </g>
    </g>
</svg>
